<svg width="25" height="24" viewBox="0 0 25 24" fill="none" xmlns="http://www.w3.org/2000/svg">
<path d="M9.43281 1.90089C8.98844 1.88777 8.67719 2.12964 8.35281 2.81214C8.16531 3.27152 8.12031 3.77589 8.12031 4.32714C8.25906 4.92339 8.39781 5.51964 8.58344 6.11589C8.85344 6.94089 9.44031 8.65464 9.88844 9.96902C9.91281 9.98027 9.93719 9.98964 9.97469 10.0065C10.1528 10.1171 10.2241 10.1771 10.3028 10.2465C10.3947 10.3271 10.4978 10.4321 10.6028 10.5465C10.6966 10.3384 10.8391 10.1415 11.0434 9.96902C11.5984 9.60152 12.2491 9.83214 12.8528 9.83214C12.8528 9.83214 13.1434 9.86027 13.5016 9.89402C12.9897 8.34152 12.0766 5.46902 11.4878 4.30464C11.1634 3.66152 10.8391 3.06527 10.4228 2.51589C10.2372 2.24027 10.0047 2.01152 9.63344 1.91964C9.56406 1.90839 9.49656 1.90089 9.43281 1.90089ZM18.1309 2.44464C17.8441 2.46902 17.5291 2.63777 17.2047 2.93589C17.1128 3.02777 16.9722 3.11964 16.9253 3.25652C16.4153 3.85277 16.0441 4.58777 15.7197 5.27589C15.1628 6.33152 14.3509 8.61339 13.9797 9.76089C13.9628 9.82277 13.9384 9.87714 13.9178 9.93714C14.2291 9.96714 14.5384 9.99902 14.7072 10.0159C15.2247 10.0721 16.5409 10.239 17.4522 10.3703C17.8272 9.29964 18.4497 7.54089 18.7459 6.66714C18.9766 5.88714 19.2091 5.10714 19.3028 4.32714C19.3478 3.77589 19.2541 3.27152 18.8828 2.81214C18.6747 2.53839 18.4178 2.42027 18.1309 2.44464ZM8.96219 10.4415C8.91156 10.4396 8.85906 10.4434 8.80281 10.4546C8.30969 10.5465 7.89344 10.8409 7.56344 11.2084C7.54094 11.2328 7.52406 11.259 7.50344 11.2834C7.38531 11.4728 7.31594 11.6678 7.32719 11.8403V11.8853C7.32719 12.2396 7.46781 12.3896 7.55969 12.6203C7.88406 13.2596 8.53469 14.0865 9.24531 14.8703C9.27906 14.9059 9.31281 14.9415 9.34469 14.9771C9.54156 15.1909 9.74219 15.4046 9.94094 15.6146C10.2803 15.9484 10.6684 16.5034 11.2159 16.2653C11.5591 16.1134 11.8984 15.729 12.0203 15.3746C12.0466 15.3053 12.0597 15.2359 12.0597 15.1665C12.0597 14.3996 10.3928 11.7896 9.78906 11.0096C9.57156 10.7284 9.32031 10.4509 8.96219 10.4415ZM12.8059 10.5671C12.4816 10.5671 12.2022 10.5671 11.8778 10.6571C11.6453 10.749 11.4597 10.8878 11.4597 11.1615C11.4409 11.3884 11.4728 11.5946 11.5347 11.7878C11.6284 11.9396 11.7203 12.1009 11.8103 12.2678C11.8853 12.3465 11.9641 12.4253 12.0634 12.4946C12.3878 12.7234 12.8059 12.8603 13.2222 12.9521C14.1522 13.1359 15.1253 13.1359 16.1003 13.1359C16.3309 13.1359 16.5184 13.1359 16.7509 13.1828C16.9816 13.2278 17.0284 13.4115 17.0753 13.6403C17.1203 13.824 16.9816 13.9159 16.8428 13.9628C16.5653 14.0996 16.3309 14.1915 16.0534 14.2815C14.9397 14.6959 14.1053 15.429 13.5016 16.4396C13.0834 17.1728 12.9447 17.9528 13.2709 18.7796C13.3628 18.9615 13.4097 19.1453 13.4547 19.374C13.5016 19.5596 13.5484 19.7884 13.5016 20.0171C13.0384 19.9253 12.7591 19.6965 12.5284 19.329C12.3428 18.9615 12.2491 18.549 12.2022 18.1365C12.1572 17.9078 12.1553 17.6771 12.1553 17.4484C12.1872 17.1634 12.2303 16.929 12.2828 16.7265C12.1497 16.8653 11.9978 16.9984 11.8084 17.109C11.5722 17.2646 11.2159 17.2815 10.9141 17.2553C10.9384 17.3078 10.9628 17.3603 10.9834 17.4109C10.9834 17.5028 11.0303 17.5478 11.0303 17.5946C11.1691 18.1459 10.9366 18.6503 10.4734 18.9709C10.1022 19.2465 9.63906 19.2446 9.22094 19.1546C8.47844 18.9709 7.80156 18.4778 7.33844 17.8815C7.10594 17.5609 6.87344 17.1934 6.82844 16.8278C6.68781 16.4603 6.68781 16.2765 6.92031 16.0478C6.96531 16.1378 7.05906 16.1846 7.10594 16.2746C7.33656 16.5503 7.52219 16.8278 7.75469 17.1015C8.03219 17.424 8.43156 17.7784 8.80281 17.9153C9.12719 18.0521 9.40656 18.0521 9.73094 17.9153C10.0084 17.7784 10.0553 17.5946 10.0103 17.319C9.96344 17.2271 9.91656 17.1353 9.86969 17.0453C9.54531 16.4021 9.12719 15.8059 8.61719 15.2996C8.33969 15.0259 7.10031 13.6196 6.32594 13.9946C5.78781 14.3378 5.43719 14.8665 5.33594 15.5678C5.24406 16.3478 5.33594 17.0359 5.56844 17.769C6.03344 19.2371 7.61031 20.8421 9.18719 21.4853C10.3928 21.9896 11.6472 22.1734 12.9447 22.0346C13.8747 21.9896 14.8009 21.7159 15.6353 21.3015C17.3059 20.4765 18.4197 19.1453 19.1153 17.4484C19.4416 16.6234 19.6272 15.7046 19.6722 14.7878C19.6797 14.6846 19.6834 14.5815 19.6872 14.4803C19.6872 14.1896 19.6872 13.6928 19.6609 13.2446C19.6422 13.0721 19.6141 12.8959 19.5803 12.7215C19.5466 12.5753 19.5053 12.429 19.4584 12.2846C19.3159 12.0071 19.1097 11.769 18.8116 11.6228C18.5791 11.5309 18.3953 11.439 18.1628 11.3471C16.7247 10.8409 14.2909 10.704 12.8059 10.5671ZM12.5378 13.7321C12.7141 14.0115 12.8922 14.2946 12.9466 14.6734C12.9747 14.8665 12.9766 15.1965 12.8959 15.564C12.9409 15.5059 12.9878 15.4459 13.0384 15.3821C13.4078 14.8328 13.9197 14.4653 14.4747 14.0528C13.7903 14.0096 13.1453 13.9234 12.5378 13.7321Z" fill="white"/>
</svg>
