<svg width="313" height="55" viewBox="0 0 313 55" fill="none" xmlns="http://www.w3.org/2000/svg">
<path d="M48.1971 11.6328H40.3206V39.2807H48.1971V11.6328Z" fill="white"/>
<path d="M74.3117 9.00855C76.0933 9.94577 77.453 11.1173 78.4844 12.57V8.11819H86.4079V39.515C86.4079 42.4204 85.8453 44.9978 84.6732 47.2471C83.501 49.4964 81.7663 51.324 79.4221 52.6361C77.0779 53.9482 74.2648 54.6511 70.9829 54.6511C66.5758 54.6511 62.9188 53.6202 60.1057 51.5583C57.2927 49.4964 55.6517 46.6848 55.2767 43.1233H63.1064C63.5283 44.5292 64.4191 45.7007 65.7788 46.5442C67.1384 47.3877 68.8262 47.8094 70.7485 47.8094C73.0458 47.8094 74.8743 47.1065 76.3277 45.7475C77.7812 44.3886 78.4844 42.3267 78.4844 39.515V34.6884C77.453 36.141 76.0933 37.3594 74.3117 38.3435C72.5301 39.3276 70.5141 39.7962 68.2168 39.7962C65.5912 39.7962 63.2001 39.1401 60.9966 37.7812C58.8399 36.4222 57.1052 34.5478 55.8393 32.0641C54.5734 29.5805 53.9639 26.7689 53.9639 23.5823C53.9639 20.3958 54.5734 17.631 55.8393 15.1942C57.1052 12.7574 58.793 10.883 60.9497 9.57088C63.1064 8.25877 65.4975 7.60272 68.1699 7.60272C70.5141 7.60272 72.5301 8.07133 74.3117 8.96169V9.00855ZM77.3592 18.8025C76.6091 17.4435 75.5776 16.3657 74.3117 15.6628C73.0458 14.913 71.6862 14.585 70.1859 14.585C68.6856 14.585 67.3728 14.9599 66.1538 15.6628C64.9348 16.3657 63.9034 17.3967 63.1532 18.8025C62.4031 20.1615 61.9811 21.8016 61.9811 23.676C61.9811 25.5505 62.3562 27.1906 63.1532 28.5964C63.9034 30.0023 64.9348 31.0801 66.2007 31.8298C67.4666 32.5796 68.7794 32.9545 70.2328 32.9545C71.6862 32.9545 73.0458 32.5796 74.3586 31.8767C75.6245 31.1269 76.6559 30.096 77.4061 28.737C78.1562 27.378 78.5313 25.7379 78.5313 23.8166C78.5313 21.8953 78.1562 20.2552 77.4061 18.8962L77.3592 18.8025Z" fill="white"/>
<path d="M102.02 11.6328H94.1438V39.2807H102.02V11.6328Z" fill="white"/>
<path d="M118.946 14.585V29.6742C118.946 30.7052 119.18 31.5018 119.696 31.9704C120.212 32.439 121.055 32.6733 122.274 32.6733H125.931V39.3276H120.962C114.304 39.3276 111.022 36.0942 111.022 29.6742V14.585H107.318V8.11819H111.022V0.0581055H118.946V8.11819H125.931V14.585H118.946Z" fill="white"/>
<path d="M131.464 15.1942C132.73 12.7574 134.417 10.883 136.574 9.57088C138.731 8.25877 141.122 7.60272 143.794 7.60272C146.139 7.60272 148.155 8.07133 149.889 9.00855C151.624 9.94577 153.031 11.1173 154.062 12.57V8.11819H161.985V39.2807H154.062V34.7352C153.031 36.1879 151.671 37.4063 149.889 38.3435C148.108 39.2807 146.045 39.7962 143.747 39.7962C141.122 39.7962 138.731 39.1401 136.574 37.7812C134.417 36.4222 132.73 34.5478 131.464 32.0641C130.198 29.5805 129.588 26.7689 129.588 23.5823C129.588 20.3958 130.198 17.631 131.464 15.1942ZM152.984 18.7556C152.234 17.3967 151.202 16.3189 149.936 15.6159C148.67 14.8662 147.311 14.5381 145.81 14.5381C144.31 14.5381 142.997 14.913 141.778 15.6159C140.559 16.3189 139.528 17.3498 138.778 18.7556C138.028 20.1146 137.606 21.7547 137.606 23.6292C137.606 25.5036 137.981 27.1437 138.778 28.5496C139.528 29.9554 140.559 31.0332 141.825 31.783C143.091 32.5328 144.404 32.9076 145.857 32.9076C147.311 32.9076 148.67 32.5328 149.983 31.8298C151.249 31.0801 152.28 30.0491 153.031 28.6902C153.781 27.3312 154.156 25.691 154.156 23.7698C154.156 21.8485 153.781 20.2083 153.031 18.8494L152.984 18.7556Z" fill="white"/>
<path d="M177.598 0.0581055V39.2807H169.721V0.0581055H177.598Z" fill="white"/>
<path d="M214.121 26.0659H191.335C191.523 28.3153 192.32 30.096 193.679 31.3612C195.039 32.6265 196.774 33.2825 198.79 33.2825C201.697 33.2825 203.806 32.0173 205.025 29.5337H213.511C212.621 32.5328 210.886 35.0164 208.354 36.9377C205.822 38.859 202.681 39.8431 198.977 39.8431C195.977 39.8431 193.304 39.187 190.913 37.828C188.522 36.5159 186.694 34.5946 185.334 32.1579C184.021 29.7211 183.318 26.9094 183.318 23.7229C183.318 20.5363 183.974 17.6778 185.287 15.2411C186.6 12.8043 188.428 10.9298 190.819 9.61774C193.164 8.30563 195.883 7.64958 198.977 7.64958C202.072 7.64958 204.603 8.30563 206.948 9.57088C209.292 10.8361 211.12 12.6637 212.386 15.0068C213.699 17.3498 214.308 20.0209 214.308 23.0668C214.308 24.1915 214.215 25.2224 214.074 26.1128L214.121 26.0659ZM206.197 20.7707C206.197 18.7556 205.447 17.1155 203.994 15.8971C202.587 14.6787 200.806 14.0695 198.743 14.0695C196.774 14.0695 195.133 14.6787 193.82 15.8502C192.507 17.0218 191.663 18.6619 191.382 20.7707H206.197Z" fill="white"/>
<path d="M249.894 8.11819L230.577 53.9951H222.185L228.936 38.4841L216.465 8.11819H225.279L233.343 29.8617L241.501 8.11819H249.894Z" fill="white"/>
<path d="M282.9 26.0659H260.114C260.302 28.3153 261.099 30.096 262.459 31.3612C263.818 32.6265 265.553 33.2825 267.569 33.2825C270.476 33.2825 272.586 32.0173 273.805 29.5337H282.291C281.4 32.5328 279.665 35.0164 277.133 36.9377C274.602 38.859 271.46 39.8431 267.757 39.8431C264.756 39.8431 262.084 39.187 259.692 37.828C257.301 36.5159 255.473 34.5946 254.113 32.1579C252.8 29.7211 252.097 26.9094 252.097 23.7229C252.097 20.5363 252.754 17.6778 254.066 15.2411C255.379 12.8043 257.208 10.9298 259.599 9.61774C261.943 8.30563 264.662 7.64958 267.757 7.64958C270.851 7.64958 273.383 8.30563 275.727 9.57088C278.071 10.8361 279.9 12.6637 281.166 15.0068C282.478 17.3498 283.088 20.0209 283.088 23.0668C283.088 24.1915 282.994 25.2224 282.853 26.1128L282.9 26.0659ZM274.977 20.7707C274.977 18.7556 274.227 17.1155 272.773 15.8971C271.367 14.6787 269.585 14.0695 267.522 14.0695C265.553 14.0695 263.912 14.6787 262.599 15.8502C261.287 17.0218 260.443 18.6619 260.161 20.7707H274.977Z" fill="white"/>
<path d="M293.918 38.3904C291.902 37.4532 290.308 36.2348 289.089 34.6415C287.87 33.0482 287.26 31.3144 287.167 29.3931H295.09C295.231 30.6115 295.84 31.5955 296.872 32.3922C297.903 33.1888 299.169 33.5637 300.716 33.5637C302.263 33.5637 303.389 33.2825 304.233 32.6733C305.077 32.0641 305.499 31.3144 305.499 30.3771C305.499 29.3462 304.983 28.5964 303.951 28.081C302.92 27.5655 301.279 27.0032 299.028 26.4408C296.684 25.8785 294.809 25.3162 293.309 24.707C291.808 24.0978 290.542 23.2074 289.464 21.9422C288.386 20.7238 287.87 19.0368 287.87 16.9281C287.87 15.1942 288.386 13.6478 289.37 12.1951C290.355 10.7424 291.808 9.6646 293.637 8.82111C295.512 7.97761 297.669 7.60272 300.201 7.60272C303.904 7.60272 306.858 8.53994 309.109 10.3675C311.359 12.1951 312.531 14.7256 312.766 17.8653H305.217C305.123 16.6469 304.608 15.6628 303.67 14.913C302.732 14.1633 301.513 13.8352 299.966 13.8352C298.56 13.8352 297.434 14.1164 296.684 14.6319C295.934 15.1473 295.512 15.8971 295.512 16.8343C295.512 17.8653 296.028 18.6619 297.106 19.2242C298.138 19.7866 299.779 20.302 301.982 20.8644C304.233 21.4267 306.108 21.989 307.561 22.5982C309.015 23.2074 310.281 24.1446 311.359 25.363C312.437 26.5814 313 28.2684 313 30.3303C313 32.111 312.484 33.7511 311.5 35.157C310.515 36.5628 309.062 37.6875 307.233 38.4841C305.405 39.2807 303.201 39.7025 300.716 39.7025C298.231 39.7025 295.887 39.2339 293.871 38.3435L293.918 38.3904Z" fill="white"/>
<path d="M14.7686 0.0581055H0V9.14913H14.7686C20.5822 9.14913 25.3176 13.8821 25.3176 19.6928C25.3176 25.5036 20.5822 30.2366 14.7686 30.2366H9.09557V39.3276H14.7686C25.5989 39.3276 34.4131 30.5177 34.4131 19.6928C34.4131 8.86797 25.5989 0.0581055 14.7686 0.0581055ZM0 21.1924V30.2834H9.09557V21.1924H0Z" fill="white"/>
<path d="M9.09557 21.1924H0V30.2834H9.09557V21.1924Z" fill="white"/>
<path d="M15.5656 14.6787H9.09557V21.1455H15.5656V14.6787Z" fill="white"/>
<path d="M48.1971 0.0581055H40.3206V7.93075H48.1971V0.0581055Z" fill="white"/>
<path d="M102.067 0.0581055H94.1907V7.93075H102.067V0.0581055Z" fill="white"/>
</svg>
