<svg width="21" height="20" viewBox="0 0 21 20" fill="none" xmlns="http://www.w3.org/2000/svg">
<path d="M12.2739 12.4387C13.0287 14.6745 13.5504 17.0176 13.8102 19.4392C12.7742 19.8024 11.6602 20 10.5001 20C8.43947 20 6.52439 19.3767 4.93313 18.3084C6.46448 15.4713 9.1051 13.321 12.2739 12.4387ZM20.0726 12.9019C19.3558 15.2696 17.7846 17.266 15.7177 18.5326C15.4338 16.304 14.9403 14.1409 14.2576 12.0636C16.227 11.861 18.2413 12.1465 20.0726 12.9019ZM10.6445 8.4845C10.9773 9.1629 11.2875 9.8544 11.5741 10.558C8.08025 11.5767 5.15124 13.9207 3.36774 17.0092C1.3207 14.9264 0.278362 11.9914 0.541242 9.087C3.88358 9.7954 7.41047 9.5891 10.6445 8.4845ZM18.2204 3.64365C19.884 5.66192 20.6929 8.3021 20.4598 10.9039C18.2706 10.0744 15.8772 9.812 13.5594 10.1334C13.2373 9.319 12.8855 8.5195 12.5053 7.73629C14.6603 6.73373 16.5959 5.33894 18.2204 3.64365ZM5.76566 1.18957C7.25461 2.87895 8.5734 4.72187 9.6953 6.69155C6.87305 7.59634 3.81762 7.74339 0.920342 7.12243C1.68815 4.5627 3.45386 2.43448 5.76566 1.18957ZM10.5001 0C12.8884 0 15.0812 0.83725 16.8009 2.23424C15.3215 3.7846 13.552 5.05569 11.5794 5.96039C10.4721 3.97735 9.1774 2.11315 7.71935 0.39172C8.6021 0.13667 9.5352 0 10.5001 0Z" fill="white"/>
</svg>
