<svg width="25" height="24" viewBox="0 0 25 24" fill="none" xmlns="http://www.w3.org/2000/svg">
<g clip-path="url(#clip0_106_989)">
<path d="M14 21.8883C18.8113 21.1645 22.5 17.013 22.5 12C22.5 6.47715 18.0228 2 12.5 2C6.97715 2 2.5 6.47715 2.5 12C2.5 17.013 6.18874 21.1645 11 21.8883V15H9.5C8.67157 15 8 14.3284 8 13.5C8 12.6716 8.67157 12 9.5 12H11V10C11 8.067 12.567 6.5 14.5 6.5H15C15.8284 6.5 16.5 7.17157 16.5 8C16.5 8.82843 15.8284 9.5 15 9.5H14.5C14.2239 9.5 14 9.72386 14 10V12H15.5C16.3284 12 17 12.6716 17 13.5C17 14.3284 16.3284 15 15.5 15H14V21.8883Z" fill="white"/>
</g>
<defs>
<clipPath id="clip0_106_989">
<rect width="24" height="24" fill="white" transform="translate(0.5)"/>
</clipPath>
</defs>
</svg>
