<svg width="25" height="24" viewBox="0 0 25 24" fill="none" xmlns="http://www.w3.org/2000/svg">
<g clip-path="url(#clip0_106_995)">
<path d="M7.52384 2.31082C8.14246 2.5212 8.90769 2.8565 9.64889 3.35635C10.5471 3.12478 11.5063 3.00024 12.5003 3.00024C13.4932 3.00024 14.4515 3.12453 15.349 3.35565C16.09 2.85605 16.8551 2.52092 17.4735 2.31065C18.1704 2.07371 19.1637 1.68897 19.7534 2.34228C20.1538 2.78582 20.2531 3.53022 20.3245 4.09775C20.4043 4.73194 20.4229 5.5586 20.213 6.37821C21.0159 7.41501 21.5003 8.65268 21.5003 10.0002C21.5003 12.0424 20.3942 13.815 18.7571 15.0428C18.0036 15.6079 17.1276 16.0675 16.1669 16.399C16.3813 16.8893 16.5003 17.4309 16.5003 18.0002V21.0002C16.5003 21.5525 16.0525 22.0002 15.5003 22.0002H9.50029C8.94801 22.0002 8.50029 21.5525 8.50029 21.0002V20.0089C7.54497 20.1259 6.74437 20.0224 6.06284 19.7333C5.35105 19.4313 4.85493 18.9629 4.48205 18.5154C4.12835 18.091 3.74274 17.1351 3.18404 16.9489C2.6601 16.7742 2.37694 16.2079 2.55158 15.684C2.72623 15.16 3.29255 14.8769 3.81649 15.0515C4.48227 15.2734 4.91578 15.7536 5.21343 16.1388C5.69249 16.7587 6.08388 17.5697 6.84394 17.8921C7.1565 18.0247 7.6157 18.1127 8.33254 18.0139L8.50034 17.9804C8.50307 17.4183 8.62173 16.8836 8.83365 16.399C7.87297 16.0675 6.9969 15.6079 6.24344 15.0428C4.6063 13.815 3.50029 12.0424 3.50029 10.0002C3.50029 8.65426 3.98353 7.41789 4.78472 6.38183C4.57403 5.56158 4.59241 4.73403 4.67216 4.09921C4.67376 4.08646 4.67536 4.07366 4.67697 4.06081C4.74985 3.47933 4.83573 2.79407 5.24331 2.34239C5.8329 1.68904 6.827 2.07385 7.52384 2.31082Z" fill="white"/>
</g>
<defs>
<clipPath id="clip0_106_995">
<rect width="24" height="24" fill="white" transform="translate(0.5)"/>
</clipPath>
</defs>
</svg>
