<svg width="25" height="24" viewBox="0 0 25 24" fill="none" xmlns="http://www.w3.org/2000/svg">
<g clip-path="url(#clip0_106_983)">
<path fill-rule="evenodd" clip-rule="evenodd" d="M18.5 3C20.1569 3 21.5 4.34315 21.5 6V18C21.5 19.6569 20.1569 21 18.5 21H6.5C4.84315 21 3.5 19.6569 3.5 18V6C3.5 4.34315 4.84315 3 6.5 3H18.5ZM8.5 10C7.94772 10 7.5 10.4477 7.5 11V16C7.5 16.5523 7.94772 17 8.5 17C9.05228 17 9.5 16.5523 9.5 16V11C9.5 10.4477 9.05228 10 8.5 10ZM11.5 9C10.9477 9 10.5 9.44772 10.5 10V16C10.5 16.5523 10.9477 17 11.5 17C12.0523 17 12.5 16.5523 12.5 16V12.3398C12.8049 11.9955 13.3207 11.5921 13.8933 11.3472C14.2261 11.2048 14.7268 11.1479 15.0751 11.2574C15.2274 11.3053 15.3143 11.3726 15.368 11.4451C15.4201 11.5157 15.5 11.6707 15.5 12V16C15.5 16.5522 15.9477 17 16.5 17C17.0523 17 17.5 16.5522 17.5 16V12C17.5 11.3292 17.3298 10.7342 16.9758 10.2556C16.6232 9.77907 16.1476 9.4981 15.6749 9.34949C14.7732 9.06594 13.7739 9.22295 13.1067 9.50837C12.895 9.59892 12.6863 9.70435 12.4841 9.82128C12.3998 9.35427 11.9913 9 11.5 9ZM8.5 7C7.94772 7 7.5 7.44772 7.5 8C7.5 8.55228 7.94772 9 8.5 9C9.05228 9 9.5 8.55228 9.5 8C9.5 7.44772 9.05228 7 8.5 7Z" fill="white"/>
</g>
<defs>
<clipPath id="clip0_106_983">
<rect width="24" height="24" fill="white" transform="translate(0.5)"/>
</clipPath>
</defs>
</svg>
