<svg width="150" height="26" viewBox="0 0 150 26" fill="none" xmlns="http://www.w3.org/2000/svg">
<path d="M22.9539 5.51245H19.2027V18.6798H22.9539V5.51245Z" fill="url(#paint0_linear_138_525)"/>
<path d="M35.3911 4.26266C36.2395 4.70901 36.8871 5.26695 37.3783 5.9588V3.83863H41.1519V18.7914C41.1519 20.1751 40.8839 21.4026 40.3257 22.4738C39.7675 23.5451 38.9413 24.4155 37.8249 25.0403C36.7084 25.6652 35.3687 26 33.8057 26C31.7068 26 29.9652 25.509 28.6254 24.527C27.2857 23.5451 26.5042 22.206 26.3256 20.5099H30.0545C30.2554 21.1794 30.6797 21.7373 31.3272 22.1391C31.9748 22.5408 32.7786 22.7416 33.6941 22.7416C34.7882 22.7416 35.659 22.4069 36.3512 21.7597C37.0434 21.1124 37.3783 20.1305 37.3783 18.7914V16.4927C36.8871 17.1845 36.2395 17.7648 35.3911 18.2335C34.5426 18.7021 33.5824 18.9253 32.4883 18.9253C31.2379 18.9253 30.0991 18.6129 29.0497 17.9657C28.0226 17.3185 27.1964 16.4258 26.5935 15.2429C25.9907 14.0601 25.7004 12.721 25.7004 11.2034C25.7004 9.68584 25.9907 8.3691 26.5935 7.20858C27.1964 6.04807 28.0002 5.15536 29.0274 4.53047C30.0545 3.90558 31.1933 3.59313 32.466 3.59313C33.5824 3.59313 34.5426 3.81631 35.3911 4.24034V4.26266ZM36.8424 8.92704C36.4852 8.27983 35.9939 7.76652 35.3911 7.43176C34.7882 7.07468 34.1406 6.91845 33.4261 6.91845C32.7116 6.91845 32.0864 7.097 31.5058 7.43176C30.9253 7.76652 30.4341 8.25751 30.0768 8.92704C29.7196 9.57425 29.5186 10.3554 29.5186 11.2481C29.5186 12.1408 29.6972 12.9219 30.0768 13.5914C30.4341 14.2609 30.9253 14.7742 31.5282 15.1313C32.1311 15.4884 32.7563 15.667 33.4485 15.667C34.1406 15.667 34.7882 15.4884 35.4134 15.1536C36.0163 14.7966 36.5075 14.3056 36.8647 13.6584C37.222 13.0112 37.4006 12.23 37.4006 11.315C37.4006 10.4 37.222 9.61888 36.8647 8.97167L36.8424 8.92704Z" fill="url(#paint1_linear_138_525)"/>
<path d="M48.5873 5.51245H44.8361V18.6798H48.5873V5.51245Z" fill="url(#paint2_linear_138_525)"/>
<path d="M56.648 6.91845V14.1047C56.648 14.5957 56.7597 14.9751 57.0053 15.1983C57.2509 15.4215 57.6528 15.533 58.2334 15.533H59.975V18.7021H57.6081C54.4375 18.7021 52.8745 17.1622 52.8745 14.1047V6.91845H51.1105V3.83863H52.8745V0H56.648V3.83863H59.975V6.91845H56.648Z" fill="url(#paint3_linear_138_525)"/>
<path d="M62.6098 7.20858C63.2127 6.04807 64.0165 5.15536 65.0436 4.53047C66.0707 3.90558 67.2095 3.59313 68.4822 3.59313C69.5987 3.59313 70.5588 3.81631 71.385 4.26266C72.2111 4.70901 72.881 5.26695 73.3722 5.9588V3.83863H77.1458V18.6798H73.3722V16.515C72.881 17.2069 72.2335 17.7871 71.385 18.2335C70.5365 18.6798 69.554 18.9253 68.4599 18.9253C67.2095 18.9253 66.0707 18.6129 65.0436 17.9657C64.0165 17.3185 63.2127 16.4258 62.6098 15.2429C62.0069 14.0601 61.7166 12.721 61.7166 11.2034C61.7166 9.68584 62.0069 8.3691 62.6098 7.20858ZM72.8587 8.90472C72.5014 8.25751 72.0102 7.74421 71.4073 7.40944C70.8044 7.05236 70.1569 6.89614 69.4424 6.89614C68.7279 6.89614 68.1027 7.07468 67.5221 7.40944C66.9416 7.74421 66.4503 8.23519 66.0931 8.90472C65.7358 9.55193 65.5349 10.333 65.5349 11.2258C65.5349 12.1185 65.7135 12.8996 66.0931 13.5691C66.4503 14.2386 66.9416 14.7519 67.5444 15.109C68.1473 15.4661 68.7725 15.6446 69.4647 15.6446C70.1569 15.6446 70.8044 15.4661 71.4296 15.1313C72.0325 14.7742 72.5237 14.2833 72.881 13.6361C73.2383 12.9888 73.4169 12.2077 73.4169 11.2927C73.4169 10.3777 73.2383 9.59657 72.881 8.94936L72.8587 8.90472Z" fill="url(#paint4_linear_138_525)"/>
<path d="M84.5813 0V18.6798H80.83V0H84.5813Z" fill="url(#paint5_linear_138_525)"/>
<path d="M101.975 12.3863H91.1236C91.2129 13.4575 91.5925 14.3056 92.24 14.9082C92.8876 15.5107 93.7137 15.8232 94.6739 15.8232C96.0583 15.8232 97.063 15.2206 97.6436 14.0378H101.685C101.261 15.4661 100.435 16.6489 99.2289 17.5639C98.0232 18.479 96.5271 18.9476 94.7632 18.9476C93.3341 18.9476 92.0614 18.6352 90.9226 17.988C89.7839 17.3631 88.913 16.4481 88.2655 15.2876C87.6403 14.127 87.3054 12.788 87.3054 11.2704C87.3054 9.75279 87.618 8.39142 88.2432 7.2309C88.8684 6.07039 89.7392 5.17768 90.878 4.55279C91.9944 3.9279 93.2895 3.61545 94.7632 3.61545C96.2369 3.61545 97.4426 3.9279 98.5591 4.53047C99.6755 5.13305 100.546 6.00343 101.149 7.11931C101.774 8.23519 102.065 9.5073 102.065 10.9579C102.065 11.4936 102.02 11.9845 101.953 12.4086L101.975 12.3863ZM98.2018 9.86438C98.2018 8.90472 97.8445 8.12361 97.1524 7.54335C96.4825 6.96309 95.634 6.67296 94.6515 6.67296C93.7137 6.67296 92.9322 6.96309 92.307 7.52103C91.6818 8.07897 91.2799 8.86009 91.1459 9.86438H98.2018Z" fill="url(#paint6_linear_138_525)"/>
<path d="M119.012 3.83863L109.813 25.6876H105.816L109.031 18.3004L103.092 3.83863H107.29L111.13 14.194L115.015 3.83863H119.012Z" fill="url(#paint7_linear_138_525)"/>
<path d="M134.732 12.3863H123.88C123.969 13.4575 124.349 14.3056 124.996 14.9082C125.644 15.5107 126.47 15.8232 127.43 15.8232C128.814 15.8232 129.819 15.2206 130.4 14.0378H134.441C134.017 15.4661 133.191 16.6489 131.985 17.5639C130.779 18.479 129.283 18.9476 127.519 18.9476C126.09 18.9476 124.818 18.6352 123.679 17.988C122.54 17.3631 121.669 16.4481 121.022 15.2876C120.397 14.127 120.062 12.788 120.062 11.2704C120.062 9.75279 120.374 8.39142 120.999 7.2309C121.625 6.07039 122.495 5.17768 123.634 4.55279C124.751 3.9279 126.046 3.61545 127.519 3.61545C128.993 3.61545 130.199 3.9279 131.315 4.53047C132.432 5.13305 133.303 6.00343 133.905 7.11931C134.531 8.23519 134.821 9.5073 134.821 10.9579C134.821 11.4936 134.776 11.9845 134.709 12.4086L134.732 12.3863ZM130.958 9.86438C130.958 8.90472 130.601 8.12361 129.909 7.54335C129.239 6.96309 128.39 6.67296 127.408 6.67296C126.47 6.67296 125.688 6.96309 125.063 7.52103C124.438 8.07897 124.036 8.86009 123.902 9.86438H130.958Z" fill="url(#paint8_linear_138_525)"/>
<path d="M139.979 18.2558C139.019 17.8094 138.26 17.2292 137.679 16.4704C137.098 15.7116 136.808 14.8858 136.764 13.9708H140.537C140.604 14.5511 140.894 15.0197 141.386 15.3991C141.877 15.7785 142.48 15.9571 143.217 15.9571C143.953 15.9571 144.489 15.8232 144.891 15.533C145.293 15.2429 145.494 14.8858 145.494 14.4395C145.494 13.9485 145.248 13.5914 144.757 13.3459C144.266 13.1004 143.484 12.8326 142.413 12.5648C141.296 12.297 140.403 12.0292 139.689 11.7391C138.974 11.4489 138.371 11.0249 137.858 10.4223C137.344 9.84206 137.098 9.03863 137.098 8.03433C137.098 7.20858 137.344 6.4721 137.813 5.78026C138.282 5.08841 138.974 4.57511 139.845 4.17339C140.738 3.77167 141.765 3.59313 142.971 3.59313C144.735 3.59313 146.142 4.03948 147.213 4.90987C148.285 5.78026 148.843 6.98541 148.955 8.48069H145.36C145.315 7.90043 145.07 7.43176 144.623 7.07468C144.177 6.7176 143.596 6.56137 142.859 6.56137C142.189 6.56137 141.654 6.69528 141.296 6.94077C140.939 7.18627 140.738 7.54335 140.738 7.9897C140.738 8.48069 140.984 8.86009 141.497 9.1279C141.988 9.39571 142.77 9.6412 143.819 9.90901C144.891 10.1768 145.784 10.4446 146.477 10.7348C147.169 11.0249 147.772 11.4712 148.285 12.0515C148.799 12.6318 149.067 13.4352 149.067 14.4172C149.067 15.2652 148.821 16.0464 148.352 16.7159C147.883 17.3854 147.191 17.921 146.32 18.3004C145.449 18.6798 144.4 18.8807 143.217 18.8807C142.033 18.8807 140.917 18.6575 139.957 18.2335L139.979 18.2558Z" fill="url(#paint9_linear_138_525)"/>
<path d="M7.03355 0H0V4.32961H7.03355C9.80232 4.32961 12.0575 6.58369 12.0575 9.35107C12.0575 12.1185 9.80232 14.3725 7.03355 14.3725H4.33178V18.7021H7.03355C12.1915 18.7021 16.3893 14.5064 16.3893 9.35107C16.3893 4.19571 12.1915 0 7.03355 0ZM0 10.0652V14.3948H4.33178V10.0652H0Z" fill="url(#paint10_linear_138_525)"/>
<path d="M4.33178 10.0652H0V14.3948H4.33178V10.0652Z" fill="url(#paint11_linear_138_525)"/>
<path d="M7.41314 6.96309H4.33178V10.0429H7.41314V6.96309Z" fill="url(#paint12_linear_138_525)"/>
<path d="M22.9539 0H19.2027V3.74936H22.9539V0Z" fill="url(#paint13_linear_138_525)"/>
<path d="M48.6097 0H44.8584V3.74936H48.6097V0Z" fill="url(#paint14_linear_138_525)"/>
<defs>
<linearGradient id="paint0_linear_138_525" x1="67.7576" y1="26" x2="67.7576" y2="0" gradientUnits="userSpaceOnUse">
<stop stop-color="#010A28"/>
<stop offset="1" stop-color="#3D4459"/>
</linearGradient>
<linearGradient id="paint1_linear_138_525" x1="67.7576" y1="26" x2="67.7576" y2="0" gradientUnits="userSpaceOnUse">
<stop stop-color="#010A28"/>
<stop offset="1" stop-color="#3D4459"/>
</linearGradient>
<linearGradient id="paint2_linear_138_525" x1="67.7576" y1="26" x2="67.7576" y2="0" gradientUnits="userSpaceOnUse">
<stop stop-color="#010A28"/>
<stop offset="1" stop-color="#3D4459"/>
</linearGradient>
<linearGradient id="paint3_linear_138_525" x1="67.7576" y1="26" x2="67.7576" y2="0" gradientUnits="userSpaceOnUse">
<stop stop-color="#010A28"/>
<stop offset="1" stop-color="#3D4459"/>
</linearGradient>
<linearGradient id="paint4_linear_138_525" x1="67.7576" y1="26" x2="67.7576" y2="0" gradientUnits="userSpaceOnUse">
<stop stop-color="#010A28"/>
<stop offset="1" stop-color="#3D4459"/>
</linearGradient>
<linearGradient id="paint5_linear_138_525" x1="67.7576" y1="26" x2="67.7576" y2="0" gradientUnits="userSpaceOnUse">
<stop stop-color="#010A28"/>
<stop offset="1" stop-color="#3D4459"/>
</linearGradient>
<linearGradient id="paint6_linear_138_525" x1="67.7576" y1="26" x2="67.7576" y2="0" gradientUnits="userSpaceOnUse">
<stop stop-color="#010A28"/>
<stop offset="1" stop-color="#3D4459"/>
</linearGradient>
<linearGradient id="paint7_linear_138_525" x1="67.7576" y1="26" x2="67.7576" y2="0" gradientUnits="userSpaceOnUse">
<stop stop-color="#010A28"/>
<stop offset="1" stop-color="#3D4459"/>
</linearGradient>
<linearGradient id="paint8_linear_138_525" x1="67.7576" y1="26" x2="67.7576" y2="0" gradientUnits="userSpaceOnUse">
<stop stop-color="#010A28"/>
<stop offset="1" stop-color="#3D4459"/>
</linearGradient>
<linearGradient id="paint9_linear_138_525" x1="67.7576" y1="26" x2="67.7576" y2="0" gradientUnits="userSpaceOnUse">
<stop stop-color="#010A28"/>
<stop offset="1" stop-color="#3D4459"/>
</linearGradient>
<linearGradient id="paint10_linear_138_525" x1="67.7576" y1="26" x2="67.7576" y2="0" gradientUnits="userSpaceOnUse">
<stop stop-color="#010A28"/>
<stop offset="1" stop-color="#3D4459"/>
</linearGradient>
<linearGradient id="paint11_linear_138_525" x1="67.7576" y1="26" x2="67.7576" y2="0" gradientUnits="userSpaceOnUse">
<stop stop-color="#010A28"/>
<stop offset="1" stop-color="#3D4459"/>
</linearGradient>
<linearGradient id="paint12_linear_138_525" x1="67.7576" y1="26" x2="67.7576" y2="0" gradientUnits="userSpaceOnUse">
<stop stop-color="#010A28"/>
<stop offset="1" stop-color="#3D4459"/>
</linearGradient>
<linearGradient id="paint13_linear_138_525" x1="67.7576" y1="26" x2="67.7576" y2="0" gradientUnits="userSpaceOnUse">
<stop stop-color="#010A28"/>
<stop offset="1" stop-color="#3D4459"/>
</linearGradient>
<linearGradient id="paint14_linear_138_525" x1="67.7576" y1="26" x2="67.7576" y2="0" gradientUnits="userSpaceOnUse">
<stop stop-color="#010A28"/>
<stop offset="1" stop-color="#3D4459"/>
</linearGradient>
</defs>
</svg>
