<svg width="20" height="17" viewBox="0 0 20 17" fill="none" xmlns="http://www.w3.org/2000/svg">
<path d="M2.09375 0.983303C2.4629 0.940273 2.82546 1.1055 3.03516 1.41233C4.51054 3.57114 6.28262 4.4692 8.2489 4.67352C8.3454 3.83233 8.5724 3.00118 8.9991 2.26942C9.625 1.19577 10.643 0.405333 12.0972 0.113253C14.1066 -0.290347 15.6366 0.437353 16.5244 1.32856L18.3162 0.993603C18.699 0.922063 19.0884 1.07916 19.3144 1.39624C19.5403 1.71332 19.5617 2.13272 19.3691 2.47113L17.6496 5.49321C17.8064 9.85461 16.5944 12.8983 14.0103 14.9953C12.6395 16.1076 10.678 16.7385 8.5249 16.9333C6.35497 17.1296 3.90214 16.8922 1.46382 16.1802C1.03604 16.0553 0.742544 15.6624 0.744124 15.2168C0.745694 14.7711 1.04195 14.3803 1.4706 14.2584C2.69682 13.9097 3.63012 13.6082 4.47377 13.0817C3.27531 12.4454 2.39225 11.6136 1.76726 10.6653C0.898594 9.34721 0.576484 7.87781 0.512534 6.55251C0.448594 5.22735 0.640094 3.99999 0.841784 3.11416C0.956594 2.6099 1.09069 2.10329 1.27553 1.61934C1.40978 1.27054 1.72461 1.02634 2.09375 0.983303Z" fill="white"/>
</svg>
